<svg xmlns="http://www.w3.org/2000/svg" viewBox="0 0 130.49 76.06"><defs><style>.cls-1{fill:#010300;}</style></defs><title>Asset 1</title><g id="Layer_2" data-name="Layer 2"><g id="OBJECTS"><path class="cls-1" d="M.82,1.3l1.56-.21C3.41,1,4.88.71,6.82.56s4.28-.35,7-.49L18.08,0c1.51.05,3.1.06,4.75.14a106.75,106.75,0,0,1,10.65,1A118.88,118.88,0,0,1,45.21,3.41,124.91,124.91,0,0,1,57.47,7.07a122.59,122.59,0,0,1,12.22,5.07,119.82,119.82,0,0,1,11.62,6.41A111.46,111.46,0,0,1,91.84,26c1.61,1.32,3.22,2.61,4.7,4s2.94,2.69,4.31,4,2.62,2.74,3.87,4,2.34,2.67,3.39,4,2.06,2.54,2.93,3.79,1.74,2.41,2.48,3.54l2,3.21c.6,1,1.11,2,1.59,2.81s.9,1.6,1.22,2.29l.84,1.72c.45.94.68,1.44.68,1.44a.93.93,0,0,1-.45,1.26.94.94,0,0,1-1.17-.29l0,0-.93-1.26c-.61-.82-1.43-2.07-2.59-3.58l-1.87-2.51-2.28-2.9C109,49.36,107,47.1,104.9,44.67c-1.07-1.2-2.24-2.41-3.4-3.71s-2.44-2.56-3.79-3.82c-2.61-2.62-5.53-5.2-8.62-7.79-.77-.65-1.58-1.27-2.38-1.91s-1.61-1.28-2.45-1.89l-2.52-1.88-2.59-1.81a123.94,123.94,0,0,0-11-6.7A114.67,114.67,0,0,0,56.5,9.62,106.45,106.45,0,0,0,44.65,5.56c-1-.29-1.95-.54-2.93-.77L38.84,4.1c-1.93-.37-3.8-.79-5.65-1C29.51,2.43,26,2.13,22.74,1.9c-1.62-.09-3.19-.1-4.67-.15l-4.22.06L10.15,2C9,2.09,8,2.24,7,2.33c-1.87.18-3.37.45-4.38.6L1.1,3.18A1,1,0,0,1,0,2.39.94.94,0,0,1,.8,1.31Z"/><path class="cls-1" d="M127.66,51c-.13,1-.19,1.94-.26,2.89s-.06,1.93-.06,2.89a48.61,48.61,0,0,0,.36,5.78c.12,1,.28,1.91.44,2.86s.39,1.88.6,2.82c.47,1.87,1,3.7,1.65,5.51A1.71,1.71,0,0,1,129.33,76a1.69,1.69,0,0,1-1.11,0l-.27-.09L125.49,75,123,74.19l-2.44-.87-2.43-.9c-1.62-.6-3.22-1.26-4.79-2a33.05,33.05,0,0,1-4.62-2.59,1.07,1.07,0,0,1-.25-1.44,1,1,0,0,1,.8-.48h0a24,24,0,0,1,2.7.26c.88.14,1.76.31,2.62.51a38.65,38.65,0,0,1,5.08,1.54c1.65.63,3.28,1.29,4.89,2s3.19,1.52,4.75,2.34l-2.44,2.09c-.18-1-.33-2-.47-3s-.23-2-.33-3-.18-2-.26-3-.13-2-.18-3-.07-2-.09-3l0-3c0-1-.06-2,0-3l0-3v0a1,1,0,0,1,1.08-.91,1,1,0,0,1,1,1S127.67,51,127.66,51Z"/></g></g></svg>